<svg id="visual" viewBox="0 0 900 600" width="900" height="600" xmlns="http://www.w3.org/2000/svg" xmlns:xlink="http://www.w3.org/1999/xlink" version="1.1"><rect x="0" y="0" width="900" height="600" fill="#ff5858"></rect><path d="M0 306L113 352L225 279L338 299L450 293L563 395L675 279L788 313L900 309L900 601L788 601L675 601L563 601L450 601L338 601L225 601L113 601L0 601Z" fill="#ff4949"></path><path d="M0 368L113 399L225 416L338 388L450 400L563 346L675 382L788 373L900 395L900 601L788 601L675 601L563 601L450 601L338 601L225 601L113 601L0 601Z" fill="#df3533"></path><path d="M0 453L113 455L225 424L338 385L450 405L563 431L675 367L788 437L900 440L900 601L788 601L675 601L563 601L450 601L338 601L225 601L113 601L0 601Z" fill="#c01f1e"></path><path d="M0 418L113 407L225 461L338 452L450 428L563 430L675 456L788 414L900 465L900 601L788 601L675 601L563 601L450 601L338 601L225 601L113 601L0 601Z" fill="#a10008"></path><path d="M0 463L113 517L225 475L338 489L450 468L563 471L675 495L788 508L900 453L900 601L788 601L675 601L563 601L450 601L338 601L225 601L113 601L0 601Z" fill="#7f0000"></path><path d="M0 530L113 504L225 511L338 503L450 530L563 488L675 487L788 528L900 493L900 601L788 601L675 601L563 601L450 601L338 601L225 601L113 601L0 601Z" fill="#600000"></path><path d="M0 548L113 533L225 558L338 550L450 532L563 539L675 567L788 530L900 540L900 601L788 601L675 601L563 601L450 601L338 601L225 601L113 601L0 601Z" fill="#000000"></path></svg>